<?xml version="1.0" encoding="UTF-8"?>
<svg xmlns="http://www.w3.org/2000/svg" style="display:none" aria-hidden="true">
  <symbol id="tally-mark" viewBox="0 0 24 24" fill="none" stroke="currentColor" stroke-width="2" stroke-linecap="round">
    <line x1="4"  y1="4" x2="4"  y2="20"/>
    <line x1="9"  y1="4" x2="9"  y2="20"/>
    <line x1="14" y1="4" x2="14" y2="20"/>
    <line x1="19" y1="4" x2="19" y2="20"/>
    <line x1="2"  y1="18" x2="21" y2="6"/>
  </symbol>

  <symbol id="alert-triangle" viewBox="0 0 24 24" fill="none" stroke="currentColor" stroke-width="2" stroke-linecap="round" stroke-linejoin="round">
    <path d="M12 3 L22 21 L2 21 Z"/>
    <line x1="12" y1="10" x2="12" y2="15"/>
    <line x1="12" y1="18" x2="12" y2="18.01"/>
  </symbol>

  <symbol id="search" viewBox="0 0 24 24" fill="none" stroke="currentColor" stroke-width="2" stroke-linecap="round" stroke-linejoin="round">
    <circle cx="11" cy="11" r="7"/>
    <line x1="16" y1="16" x2="21" y2="21"/>
  </symbol>

  <symbol id="chevron-right" viewBox="0 0 24 24" fill="none" stroke="currentColor" stroke-width="2" stroke-linecap="round" stroke-linejoin="round">
    <polyline points="9 6 15 12 9 18"/>
  </symbol>

  <symbol id="close" viewBox="0 0 24 24" fill="none" stroke="currentColor" stroke-width="2" stroke-linecap="round" stroke-linejoin="round">
    <line x1="6" y1="6" x2="18" y2="18"/>
    <line x1="18" y1="6" x2="6" y2="18"/>
  </symbol>

  <symbol id="pause" viewBox="0 0 24 24" fill="none" stroke="currentColor" stroke-width="2" stroke-linecap="round" stroke-linejoin="round">
    <rect x="6"  y="5" width="4" height="14" rx="1"/>
    <rect x="14" y="5" width="4" height="14" rx="1"/>
  </symbol>

  <symbol id="play" viewBox="0 0 24 24" fill="none" stroke="currentColor" stroke-width="2" stroke-linecap="round" stroke-linejoin="round">
    <polygon points="7 5 20 12 7 19 7 5"/>
  </symbol>

  <symbol id="copy" viewBox="0 0 24 24" fill="none" stroke="currentColor" stroke-width="2" stroke-linecap="round" stroke-linejoin="round">
    <rect x="9"  y="9" width="12" height="12" rx="2"/>
    <path d="M5 15 L5 5 Q5 3 7 3 L15 3"/>
  </symbol>

  <symbol id="link" viewBox="0 0 24 24" fill="none" stroke="currentColor" stroke-width="2" stroke-linecap="round" stroke-linejoin="round">
    <path d="M10 14 L14 10"/>
    <path d="M8 16 L6 18 A3 3 0 0 1 2 14 L4 12 A3 3 0 0 1 8 12"/>
    <path d="M16 8 L18 6 A3 3 0 0 1 22 10 L20 12 A3 3 0 0 1 16 12"/>
  </symbol>
</svg>
